<svg width="90" height="28" viewBox="0 0 90 28" fill="none" xmlns="http://www.w3.org/2000/svg">
  <path d="M6.768 9.972V21.6C6.768 22.56 6.972 23.244 7.38 23.652C7.788 24.036 8.496 24.228 9.504 24.228H11.916V27H8.964C7.14 27 5.772 26.58 4.86 25.74C3.948 24.9 3.492 23.52 3.492 21.6V9.972H0.936V7.272H3.492V2.304H6.768V7.272H11.916V9.972H6.768ZM24.4893 27.324C22.6413 27.324 20.9613 26.904 19.4493 26.064C17.9613 25.224 16.7853 24.036 15.9213 22.5C15.0813 20.94 14.6613 19.14 14.6613 17.1C14.6613 15.084 15.0933 13.308 15.9573 11.772C16.8453 10.212 18.0453 9.024 19.5573 8.208C21.0693 7.368 22.7613 6.948 24.6333 6.948C26.5053 6.948 28.1973 7.368 29.7093 8.208C31.2213 9.024 32.4093 10.2 33.2733 11.736C34.1613 13.272 34.6053 15.06 34.6053 17.1C34.6053 19.14 34.1493 20.94 33.2373 22.5C32.3493 24.036 31.1373 25.224 29.6013 26.064C28.0653 26.904 26.3613 27.324 24.4893 27.324ZM24.4893 24.444C25.6653 24.444 26.7693 24.168 27.8013 23.616C28.8333 23.064 29.6613 22.236 30.2853 21.132C30.9333 20.028 31.2573 18.684 31.2573 17.1C31.2573 15.516 30.9453 14.172 30.3213 13.068C29.6973 11.964 28.8813 11.148 27.8733 10.62C26.8653 10.068 25.7733 9.792 24.5973 9.792C23.3973 9.792 22.2933 10.068 21.2853 10.62C20.3013 11.148 19.5093 11.964 18.9093 13.068C18.3093 14.172 18.0093 15.516 18.0093 17.1C18.0093 18.708 18.2973 20.064 18.8733 21.168C19.4733 22.272 20.2653 23.1 21.2493 23.652C22.2333 24.18 23.3133 24.444 24.4893 24.444ZM39.9566 27.216C39.3326 27.216 38.8046 27 38.3726 26.568C37.9406 26.136 37.7246 25.608 37.7246 24.984C37.7246 24.36 37.9406 23.832 38.3726 23.4C38.8046 22.968 39.3326 22.752 39.9566 22.752C40.5566 22.752 41.0606 22.968 41.4686 23.4C41.9006 23.832 42.1166 24.36 42.1166 24.984C42.1166 25.608 41.9006 26.136 41.4686 26.568C41.0606 27 40.5566 27.216 39.9566 27.216ZM44.8872 16.956C44.8872 14.94 45.2832 13.152 46.0752 11.592C46.8912 10.032 47.9952 8.832 49.3872 7.992C50.7792 7.152 52.3272 6.732 54.0312 6.732C55.3272 6.732 56.5632 7.02 57.7392 7.596C58.9152 8.148 59.8512 8.892 60.5472 9.828V0.36H65.6592V27H60.5472V24.048C59.9232 25.032 59.0472 25.824 57.9192 26.424C56.7912 27.024 55.4832 27.324 53.9952 27.324C52.3152 27.324 50.7792 26.892 49.3872 26.028C47.9952 25.164 46.8912 23.952 46.0752 22.392C45.2832 20.808 44.8872 18.996 44.8872 16.956ZM60.5832 17.028C60.5832 15.804 60.3432 14.76 59.8632 13.896C59.3832 13.008 58.7352 12.336 57.9192 11.88C57.1032 11.4 56.2272 11.16 55.2912 11.16C54.3552 11.16 53.4912 11.388 52.6992 11.844C51.9072 12.3 51.2592 12.972 50.7552 13.86C50.2752 14.724 50.0352 15.756 50.0352 16.956C50.0352 18.156 50.2752 19.212 50.7552 20.124C51.2592 21.012 51.9072 21.696 52.6992 22.176C53.5152 22.656 54.3792 22.896 55.2912 22.896C56.2272 22.896 57.1032 22.668 57.9192 22.212C58.7352 21.732 59.3832 21.06 59.8632 20.196C60.3432 19.308 60.5832 18.252 60.5832 17.028ZM79.4377 27.324C77.5177 27.324 75.7897 26.904 74.2537 26.064C72.7177 25.2 71.5057 23.988 70.6177 22.428C69.7537 20.868 69.3217 19.068 69.3217 17.028C69.3217 14.988 69.7657 13.188 70.6537 11.628C71.5657 10.068 72.8017 8.868 74.3617 8.028C75.9217 7.164 77.6617 6.732 79.5817 6.732C81.5017 6.732 83.2417 7.164 84.8017 8.028C86.3617 8.868 87.5857 10.068 88.4737 11.628C89.3857 13.188 89.8417 14.988 89.8417 17.028C89.8417 19.068 89.3737 20.868 88.4377 22.428C87.5257 23.988 86.2777 25.2 84.6937 26.064C83.1337 26.904 81.3817 27.324 79.4377 27.324ZM79.4377 22.932C80.3497 22.932 81.2017 22.716 81.9937 22.284C82.8097 21.828 83.4577 21.156 83.9377 20.268C84.4177 19.38 84.6577 18.3 84.6577 17.028C84.6577 15.132 84.1537 13.68 83.1457 12.672C82.1617 11.64 80.9497 11.124 79.5097 11.124C78.0697 11.124 76.8577 11.64 75.8737 12.672C74.9137 13.68 74.4337 15.132 74.4337 17.028C74.4337 18.924 74.9017 20.388 75.8377 21.42C76.7977 22.428 77.9977 22.932 79.4377 22.932Z" fill="white"/>
</svg>
